Coordinates
version=1
nRows=7
nColumns=38
inDegrees=yes

Units are S.I. units (second, meters, Newtons, ...)
Angles are in degrees.

endheader
time	pelvis_tilt	pelvis_list	pelvis_rotation	pelvis_tx	pelvis_ty	pelvis_tz	hip_flexion_r	hip_adduction_r	hip_rotation_r	knee_angle_r	ankle_angle_r	subtalar_angle_r	mtp_angle_r	hip_flexion_l	hip_adduction_l	hip_rotation_l	knee_angle_l	ankle_angle_l	subtalar_angle_l	mtp_angle_l	lumbar_extension	lumbar_bending	lumbar_rotation	arm_flex_r	arm_add_r	arm_rot_r	elbow_flex_r	pro_sup_r	wrist_flex_r	wrist_dev_r	arm_flex_l	arm_add_l	arm_rot_l	elbow_flex_l	pro_sup_l	wrist_flex_l	wrist_dev_l
      1.67000000	     -2.93302645	      1.26710727	      3.53319354	      0.50537641	      0.90139458	     -0.18719753	      7.35042230	      5.69689990	      7.02394941	    -16.85979313	     11.36566593	     -8.51485909	      0.00000000	     26.64065832	      1.83044650	     -2.72440592	    -46.07675529	      4.43315264	     -1.43937633	      0.00000000	     -7.53296995	     -0.91858591	      4.45998383	      6.07623116	     -5.79159880	     41.91536514	     29.75094294	     42.41686442	      0.00000000	      0.00000000	     -0.04454466	     -7.37789535	     21.91209587	     47.09497990	     42.41686442	      0.00000000	      0.00000000
      1.68000000	     -2.93800384	      1.24852961	      3.11666872	      0.51638967	      0.90057427	     -0.18634808	      6.60337104	      5.85547383	      7.26214121	    -16.89504386	     11.97571112	     -8.69821233	      0.00000000	     27.04754183	      1.87981639	     -2.91787162	    -42.90832566	      4.34969232	     -1.48140079	      0.00000000	     -7.63753280	     -0.88869155	      4.81950141	      6.42260775	     -6.27210709	     42.34829467	     31.26214865	     42.57474438	      0.00000000	      0.00000000	     -0.50751907	     -7.26493804	     21.60721917	     46.59175415	     42.57474438	      0.00000000	      0.00000000
      1.69000000	     -2.90417990	      1.19415067	      2.71665462	      0.52747041	      0.89949992	     -0.18547644	      5.85783595	      6.04022041	      7.58277647	    -17.04990775	     12.60505408	     -8.59368436	      0.00000000	     27.36930522	      1.84007519	     -3.15695146	    -39.62435280	      4.29829344	     -1.21132158	      0.00000000	     -7.78366075	     -0.82791205	      5.13869620	      6.99678943	     -6.31501916	     42.29475219	     31.52485508	     42.59765670	      0.00000000	      0.00000000	     -1.05696896	     -7.29359082	     21.62443666	     46.39004488	     42.59765670	      0.00000000	      0.00000000
      1.70000000	     -2.86373228	      1.14725751	      2.31126410	      0.53859271	      0.89818847	     -0.18461968	      4.84218821	      6.26031869	      8.40245040	    -16.80886075	     12.95347391	     -8.82223143	      0.00000000	     27.63338123	      1.85089861	     -3.18538145	    -36.24490198	      3.99993381	     -0.79686677	      0.00000000	     -7.94392879	     -0.78258880	      5.43658379	      7.56426006	     -6.39772757	     42.27317535	     31.91003467	     42.62256774	      0.00000000	      0.00000000	     -1.58952875	     -7.30720730	     21.62110280	     46.12537198	     42.62256774	      0.00000000	      0.00000000
      1.71000000	     -2.96802249	      0.69926800	      2.03219072	      0.54966890	      0.89623025	     -0.18375153	      4.24744206	      6.86920412	      8.53547791	    -16.92050834	     13.55198191	     -8.96199750	      0.00000000	     28.24332216	      1.49343002	     -3.21687915	    -33.17681384	      3.66662535	     -0.50144830	      0.00000000	     -7.91064847	     -0.27924140	      5.83906879	      7.92893236	     -6.39580249	     42.25051603	     32.04896951	     42.62635711	      0.00000000	      0.00000000	     -1.91434967	     -7.34303941	     21.62866982	     46.01383495	     42.62635711	      0.00000000	      0.00000000
      1.72000000	     -2.72015643	      0.76390853	      1.48722482	      0.56111668	      0.89493847	     -0.18280875	      3.02824678	      7.06300742	     10.17506536	    -16.74590279	     13.71174542	    -10.43042876	      0.00000000	     27.99041631	      1.64058121	     -3.14949242	    -29.50093415	      3.30356176	     -0.13611708	      0.00000000	     -8.32361582	     -0.37200929	      6.16725684	      8.39251276	     -6.98099349	     42.40912291	     33.98469878	     42.75118062	      0.00000000	      0.00000000	     -2.47174948	     -7.12648268	     21.43063335	     44.97335694	     42.75118062	      0.00000000	      0.00000000
      1.73000000	     -2.74950690	      0.40606912	      1.09400989	      0.57256645	      0.89290002	     -0.18191754	      2.36211843	      7.54493092	     10.42764974	    -16.98144947	     14.33068495	    -10.38584044	      0.00000000	     28.22840929	      1.32590496	     -3.30028865	    -26.12575727	      2.85286797	      0.38519250	      0.00000000	     -8.36727842	      0.01497200	      6.52828923	      8.87981511	     -7.05889189	     42.33652415	     34.18034458	     42.76077963	      0.00000000	      0.00000000	     -3.05064753	     -7.08150855	     21.47983253	     44.77185518	     42.76077963	      0.00000000	      0.00000000
